<svg width="50" height="50" viewBox="0 0 50 50" fill="none" xmlns="http://www.w3.org/2000/svg">
<path d="M6.98517 18.6467C8.34244 12.8604 12.8604 8.34244 18.6467 6.98514C22.8256 6.00494 27.1744 6.00494 31.3533 6.98514C37.1396 8.34244 41.6575 12.8604 43.0148 18.6467C43.995 22.8256 43.995 27.1744 43.0148 31.3533C41.6575 37.1396 37.1396 41.6575 31.3533 43.0148C27.1744 43.995 22.8256 43.995 18.6468 43.0148C12.8604 41.6575 8.34244 37.1396 6.98517 31.3533C6.00494 27.1744 6.00494 22.8256 6.98517 18.6467Z" stroke="#3F4CFF" stroke-width="1.5"/>
<path d="M6.98517 18.6467C6.00494 22.8256 6.00494 27.1744 6.98517 31.3533C8.34244 37.1396 12.8604 41.6575 18.6468 43.0148C22.8256 43.995 27.1744 43.995 31.3533 43.0148C37.1396 41.6575 41.6575 37.1396 43.0148 31.3533C43.995 27.1744 43.995 22.8256 43.0148 18.6467C41.6575 12.8604 37.1396 8.34244 31.3533 6.98515" stroke="#363853" stroke-width="1.5" stroke-linecap="round"/>
<path d="M16.3523 18.4772C15.7421 17.867 14.7528 17.867 14.1426 18.4772C13.5324 19.0874 13.5324 20.0768 14.1426 20.6869L16.3523 18.4772ZM17.4147 21.7494L16.3099 22.8542C16.6029 23.1473 17.0003 23.3119 17.4147 23.3119C17.8291 23.3119 18.2265 23.1473 18.5196 22.8542L17.4147 21.7494ZM22.854 18.5197C23.4642 17.9095 23.4642 16.9202 22.854 16.31C22.2437 15.6998 21.2546 15.6998 20.6443 16.31L22.854 18.5197ZM27.1673 19.1032C26.3044 19.1032 25.6048 19.8028 25.6048 20.6657C25.6048 21.5288 26.3044 22.2281 27.1673 22.2281V19.1032ZM34.7525 22.2281C35.6156 22.2281 36.315 21.5288 36.315 20.6657C36.315 19.8028 35.6156 19.1032 34.7525 19.1032V22.2281ZM16.3523 29.3133C15.7421 28.7031 14.7528 28.7031 14.1426 29.3133C13.5324 29.9235 13.5324 30.9129 14.1426 31.5231L16.3523 29.3133ZM17.4147 32.5854L16.3099 33.6904C16.92 34.3006 17.9094 34.3006 18.5196 33.6904L17.4147 32.5854ZM22.854 29.3558C23.4642 28.7456 23.4642 27.7565 22.854 27.1462C22.2437 26.536 21.2546 26.536 20.6443 27.1462L22.854 29.3558ZM27.1673 29.9394C26.3044 29.9394 25.6048 30.639 25.6048 31.5019C25.6048 32.3648 26.3044 33.0644 27.1673 33.0644V29.9394ZM34.7525 33.0644C35.6156 33.0644 36.315 32.3648 36.315 31.5019C36.315 30.639 35.6156 29.9394 34.7525 29.9394V33.0644ZM14.1426 20.6869L16.3099 22.8542L18.5196 20.6445L16.3523 18.4772L14.1426 20.6869ZM18.5196 22.8542L22.854 18.5197L20.6443 16.31L16.3099 20.6445L18.5196 22.8542ZM27.1673 22.2281H34.7525V19.1032H27.1673V22.2281ZM14.1426 31.5231L16.3099 33.6904L18.5196 31.4806L16.3523 29.3133L14.1426 31.5231ZM18.5196 33.6904L22.854 29.3558L20.6443 27.1462L16.3099 31.4806L18.5196 33.6904ZM27.1673 33.0644H34.7525V29.9394H27.1673V33.0644Z" fill="#3F4CFF"/>
</svg>
